<svg id="Capa_1" enable-background="new 0 0 499.999 499.999" height="512" viewBox="0 0 499.999 499.999" width="512" xmlns="http://www.w3.org/2000/svg"><path d="m171.875 372.237c-2.701 0-5.402-.702-7.812-2.09-4.837-2.792-7.812-7.95-7.812-13.535v-215.987c0-5.585 2.975-10.727 7.797-13.519 4.837-2.792 10.788-2.838 15.625-.015l187.5 107.94c4.837 2.777 7.828 7.95 7.828 13.535s-2.975 10.742-7.828 13.535l-187.5 108.047c-2.412 1.388-5.113 2.089-7.798 2.089zm15.625-204.589v161.926l140.564-81.009c-.001 0-140.564-80.917-140.564-80.917z"/><path d="m250 499.999c-137.848 0-250-112.152-250-250s112.152-249.999 250-249.999 250 112.152 250 250-112.153 249.999-250 249.999zm0-468.749c-120.62 0-218.75 98.129-218.75 218.75s98.129 218.75 218.75 218.75 218.749-98.13 218.749-218.75-98.129-218.75-218.749-218.75z"/></svg>